<mxfile host="app.diagrams.net" modified="2021-09-30T09:03:57.689Z" agent="5.0 (Windows NT 10.0; Win64; x64) AppleWebKit/537.36 (KHTML, like Gecko) Chrome/94.0.4606.61 Safari/537.36" etag="duHxtf5mXmhAWrm0wdKd" version="15.3.8" type="github">
  <diagram name="Page-1" id="f1b7ffb7-ca1e-a977-7cf5-a751b3c06c05">
    <mxGraphModel dx="2062" dy="1122" grid="1" gridSize="10" guides="1" tooltips="1" connect="1" arrows="1" fold="1" page="1" pageScale="1" pageWidth="827" pageHeight="1169" background="none" math="0" shadow="0">
      <root>
        <mxCell id="0" />
        <mxCell id="1" parent="0" />
        <mxCell id="R8ARwrsdHcyFGw3j1qnH-62" value="" style="rounded=0;whiteSpace=wrap;html=1;" vertex="1" parent="1">
          <mxGeometry x="19" y="20" width="790" height="180" as="geometry" />
        </mxCell>
        <mxCell id="R8ARwrsdHcyFGw3j1qnH-65" style="edgeStyle=orthogonalEdgeStyle;rounded=0;orthogonalLoop=1;jettySize=auto;html=1;exitX=0.5;exitY=1;exitDx=0;exitDy=0;" edge="1" parent="1" source="R8ARwrsdHcyFGw3j1qnH-62" target="R8ARwrsdHcyFGw3j1qnH-62">
          <mxGeometry relative="1" as="geometry" />
        </mxCell>
        <mxCell id="R8ARwrsdHcyFGw3j1qnH-69" value="" style="rounded=0;whiteSpace=wrap;html=1;fontSize=45;" vertex="1" parent="1">
          <mxGeometry x="19" y="220" width="791" height="40" as="geometry" />
        </mxCell>
        <mxCell id="R8ARwrsdHcyFGw3j1qnH-72" style="edgeStyle=orthogonalEdgeStyle;rounded=0;orthogonalLoop=1;jettySize=auto;html=1;exitX=0.5;exitY=1;exitDx=0;exitDy=0;fontSize=45;" edge="1" parent="1">
          <mxGeometry relative="1" as="geometry">
            <mxPoint x="749" y="1000" as="sourcePoint" />
            <mxPoint x="749" y="1000" as="targetPoint" />
          </mxGeometry>
        </mxCell>
        <mxCell id="R8ARwrsdHcyFGw3j1qnH-73" style="edgeStyle=orthogonalEdgeStyle;rounded=0;orthogonalLoop=1;jettySize=auto;html=1;exitX=0.5;exitY=1;exitDx=0;exitDy=0;fontSize=45;" edge="1" parent="1">
          <mxGeometry relative="1" as="geometry">
            <mxPoint x="749" y="1000" as="sourcePoint" />
            <mxPoint x="749" y="1000" as="targetPoint" />
          </mxGeometry>
        </mxCell>
        <mxCell id="R8ARwrsdHcyFGw3j1qnH-91" value="" style="shape=table;startSize=0;container=1;collapsible=0;childLayout=tableLayout;fontSize=45;" vertex="1" parent="1">
          <mxGeometry x="34" y="300" width="760" height="680" as="geometry" />
        </mxCell>
        <mxCell id="R8ARwrsdHcyFGw3j1qnH-92" value="" style="shape=partialRectangle;collapsible=0;dropTarget=0;pointerEvents=0;fillColor=none;top=0;left=0;bottom=0;right=0;points=[[0,0.5],[1,0.5]];portConstraint=eastwest;fontSize=45;" vertex="1" parent="R8ARwrsdHcyFGw3j1qnH-91">
          <mxGeometry width="760" height="340" as="geometry" />
        </mxCell>
        <mxCell id="R8ARwrsdHcyFGw3j1qnH-93" value="" style="shape=partialRectangle;html=1;whiteSpace=wrap;connectable=0;overflow=hidden;fillColor=none;top=0;left=0;bottom=0;right=0;pointerEvents=1;fontSize=45;" vertex="1" parent="R8ARwrsdHcyFGw3j1qnH-92">
          <mxGeometry width="380" height="340" as="geometry">
            <mxRectangle width="380" height="340" as="alternateBounds" />
          </mxGeometry>
        </mxCell>
        <mxCell id="R8ARwrsdHcyFGw3j1qnH-94" value="" style="shape=partialRectangle;html=1;whiteSpace=wrap;connectable=0;overflow=hidden;fillColor=none;top=0;left=0;bottom=0;right=0;pointerEvents=1;fontSize=45;" vertex="1" parent="R8ARwrsdHcyFGw3j1qnH-92">
          <mxGeometry x="380" width="380" height="340" as="geometry">
            <mxRectangle width="380" height="340" as="alternateBounds" />
          </mxGeometry>
        </mxCell>
        <mxCell id="R8ARwrsdHcyFGw3j1qnH-95" value="" style="shape=partialRectangle;collapsible=0;dropTarget=0;pointerEvents=0;fillColor=none;top=0;left=0;bottom=0;right=0;points=[[0,0.5],[1,0.5]];portConstraint=eastwest;fontSize=45;" vertex="1" parent="R8ARwrsdHcyFGw3j1qnH-91">
          <mxGeometry y="340" width="760" height="340" as="geometry" />
        </mxCell>
        <mxCell id="R8ARwrsdHcyFGw3j1qnH-96" value="" style="shape=partialRectangle;html=1;whiteSpace=wrap;connectable=0;overflow=hidden;fillColor=none;top=0;left=0;bottom=0;right=0;pointerEvents=1;fontSize=45;" vertex="1" parent="R8ARwrsdHcyFGw3j1qnH-95">
          <mxGeometry width="380" height="340" as="geometry">
            <mxRectangle width="380" height="340" as="alternateBounds" />
          </mxGeometry>
        </mxCell>
        <mxCell id="R8ARwrsdHcyFGw3j1qnH-97" value="" style="shape=partialRectangle;html=1;whiteSpace=wrap;connectable=0;overflow=hidden;fillColor=none;top=0;left=0;bottom=0;right=0;pointerEvents=1;fontSize=45;" vertex="1" parent="R8ARwrsdHcyFGw3j1qnH-95">
          <mxGeometry x="380" width="380" height="340" as="geometry">
            <mxRectangle width="380" height="340" as="alternateBounds" />
          </mxGeometry>
        </mxCell>
        <mxCell id="R8ARwrsdHcyFGw3j1qnH-98" value="" style="swimlane;startSize=0;fontSize=45;" vertex="1" parent="1">
          <mxGeometry x="19" y="280" width="791" height="730" as="geometry" />
        </mxCell>
        <mxCell id="R8ARwrsdHcyFGw3j1qnH-144" value="description image" style="text;html=1;strokeColor=none;fillColor=none;align=center;verticalAlign=middle;whiteSpace=wrap;rounded=0;fontSize=19;horizontal=0;fontStyle=1" vertex="1" parent="R8ARwrsdHcyFGw3j1qnH-98">
          <mxGeometry x="721" y="55" width="40" height="250" as="geometry" />
        </mxCell>
        <mxCell id="R8ARwrsdHcyFGw3j1qnH-145" value="description image" style="text;html=1;strokeColor=none;fillColor=none;align=center;verticalAlign=middle;whiteSpace=wrap;rounded=0;fontSize=19;horizontal=0;fontStyle=1" vertex="1" parent="R8ARwrsdHcyFGw3j1qnH-98">
          <mxGeometry x="331" y="380" width="40" height="250" as="geometry" />
        </mxCell>
        <mxCell id="R8ARwrsdHcyFGw3j1qnH-146" value="description image" style="text;html=1;strokeColor=none;fillColor=none;align=center;verticalAlign=middle;whiteSpace=wrap;rounded=0;fontSize=19;horizontal=0;fontStyle=1" vertex="1" parent="R8ARwrsdHcyFGw3j1qnH-98">
          <mxGeometry x="721" y="380" width="40" height="250" as="geometry" />
        </mxCell>
        <mxCell id="R8ARwrsdHcyFGw3j1qnH-99" value="" style="rounded=0;whiteSpace=wrap;html=1;fontSize=45;" vertex="1" parent="1">
          <mxGeometry x="19" y="1040" width="791" height="110" as="geometry" />
        </mxCell>
        <mxCell id="R8ARwrsdHcyFGw3j1qnH-100" value="Title" style="text;strokeColor=none;fillColor=none;html=1;fontSize=55;fontStyle=1;verticalAlign=middle;align=center;fontFamily=Lobster;fontSource=https%3A%2F%2Ffonts.googleapis.com%2Fcss%3Ffamily%3DLobster;" vertex="1" parent="1">
          <mxGeometry x="301" y="75" width="226" height="70" as="geometry" />
        </mxCell>
        <mxCell id="R8ARwrsdHcyFGw3j1qnH-121" value="" style="strokeWidth=1;shadow=0;dashed=0;align=center;html=1;shape=mxgraph.mockup.rrect;rSize=10;fillColor=#ffffff;strokeColor=#666666;fontSize=25;" vertex="1" parent="1">
          <mxGeometry x="40" y="230" width="500" height="20" as="geometry" />
        </mxCell>
        <mxCell id="R8ARwrsdHcyFGw3j1qnH-122" value="Button 2" style="strokeColor=inherit;fillColor=inherit;gradientColor=inherit;strokeWidth=1;shadow=0;dashed=0;align=center;html=1;shape=mxgraph.mockup.rrect;rSize=0;fontSize=17;fontColor=#666666;fontStyle=1;resizeHeight=1;" vertex="1" parent="R8ARwrsdHcyFGw3j1qnH-121">
          <mxGeometry width="125" height="20" relative="1" as="geometry">
            <mxPoint x="125" as="offset" />
          </mxGeometry>
        </mxCell>
        <mxCell id="R8ARwrsdHcyFGw3j1qnH-123" value="Button 3" style="strokeColor=inherit;fillColor=inherit;gradientColor=inherit;strokeWidth=1;shadow=0;dashed=0;align=center;html=1;shape=mxgraph.mockup.rrect;rSize=0;fontSize=17;fontColor=#666666;fontStyle=1;resizeHeight=1;" vertex="1" parent="R8ARwrsdHcyFGw3j1qnH-121">
          <mxGeometry width="125" height="20" relative="1" as="geometry">
            <mxPoint x="250" as="offset" />
          </mxGeometry>
        </mxCell>
        <mxCell id="R8ARwrsdHcyFGw3j1qnH-124" value="Button 4" style="strokeColor=inherit;fillColor=inherit;gradientColor=inherit;strokeWidth=1;shadow=0;dashed=0;align=center;html=1;shape=mxgraph.mockup.rightButton;rSize=10;fontSize=17;fontColor=#666666;fontStyle=1;resizeHeight=1;" vertex="1" parent="R8ARwrsdHcyFGw3j1qnH-121">
          <mxGeometry x="1" width="125" height="20" relative="1" as="geometry">
            <mxPoint x="-125" as="offset" />
          </mxGeometry>
        </mxCell>
        <mxCell id="R8ARwrsdHcyFGw3j1qnH-125" value="Button 1" style="strokeWidth=1;shadow=0;dashed=0;align=center;html=1;shape=mxgraph.mockup.leftButton;rSize=10;fontSize=17;fontColor=#ffffff;fontStyle=1;fillColor=#008cff;strokeColor=#008cff;resizeHeight=1;" vertex="1" parent="R8ARwrsdHcyFGw3j1qnH-121">
          <mxGeometry width="125" height="20" relative="1" as="geometry" />
        </mxCell>
        <mxCell id="R8ARwrsdHcyFGw3j1qnH-126" value="Search" style="strokeWidth=1;shadow=0;dashed=0;align=center;html=1;shape=mxgraph.mockup.forms.searchBox;strokeColor=#999999;mainText=;strokeColor2=#008cff;fontColor=#666666;fontSize=17;align=left;spacingLeft=3;" vertex="1" parent="1">
          <mxGeometry x="644" y="230" width="150" height="20" as="geometry" />
        </mxCell>
        <mxCell id="R8ARwrsdHcyFGw3j1qnH-127" value="" style="strokeColor=#999999;verticalLabelPosition=bottom;shadow=0;dashed=0;verticalAlign=top;strokeWidth=2;html=1;shape=mxgraph.mockup.misc.copyrightIcon;fontSize=25;" vertex="1" parent="1">
          <mxGeometry x="769" y="1050" width="25" height="25" as="geometry" />
        </mxCell>
        <mxCell id="R8ARwrsdHcyFGw3j1qnH-128" value="-Line 1&#xa;-Line 2&#xa;-Line 3&#xa;-Line 4" style="strokeWidth=1;shadow=0;dashed=0;align=center;html=1;shape=mxgraph.mockup.text.bulletedList;textColor=#666666;mainText=,,,,;textSize=17;bulletStyle=none;strokeColor=none;fillColor=none;align=left;verticalAlign=top;fontSize=17;fontColor=#666666;" vertex="1" parent="1">
          <mxGeometry x="50" y="1050" width="150" height="135" as="geometry" />
        </mxCell>
        <mxCell id="R8ARwrsdHcyFGw3j1qnH-129" value="-Line 1&#xa;-Line 2&#xa;-Line 3&#xa;-Line 4" style="strokeWidth=1;shadow=0;dashed=0;align=center;html=1;shape=mxgraph.mockup.text.bulletedList;textColor=#666666;mainText=,,,,;textSize=17;bulletStyle=none;strokeColor=none;fillColor=none;align=left;verticalAlign=top;fontSize=17;fontColor=#666666;" vertex="1" parent="1">
          <mxGeometry x="190" y="1050" width="150" height="135" as="geometry" />
        </mxCell>
        <mxCell id="R8ARwrsdHcyFGw3j1qnH-131" value="" style="sketch=0;outlineConnect=0;fontColor=#232F3E;gradientColor=none;fillColor=#FF9900;strokeColor=none;dashed=0;verticalLabelPosition=bottom;verticalAlign=top;align=center;html=1;fontSize=12;fontStyle=0;aspect=fixed;pointerEvents=1;shape=mxgraph.aws4.container_registry_image;" vertex="1" parent="1">
          <mxGeometry x="60" y="350" width="280" height="280" as="geometry" />
        </mxCell>
        <mxCell id="R8ARwrsdHcyFGw3j1qnH-132" value="" style="sketch=0;outlineConnect=0;fontColor=#232F3E;gradientColor=none;fillColor=#FF9900;strokeColor=none;dashed=0;verticalLabelPosition=bottom;verticalAlign=top;align=center;html=1;fontSize=12;fontStyle=0;aspect=fixed;pointerEvents=1;shape=mxgraph.aws4.container_registry_image;" vertex="1" parent="1">
          <mxGeometry x="449" y="350" width="280" height="280" as="geometry" />
        </mxCell>
        <mxCell id="R8ARwrsdHcyFGw3j1qnH-133" value="" style="sketch=0;outlineConnect=0;fontColor=#232F3E;gradientColor=none;fillColor=#FF9900;strokeColor=none;dashed=0;verticalLabelPosition=bottom;verticalAlign=top;align=center;html=1;fontSize=12;fontStyle=0;aspect=fixed;pointerEvents=1;shape=mxgraph.aws4.container_registry_image;" vertex="1" parent="1">
          <mxGeometry x="60" y="690" width="280" height="280" as="geometry" />
        </mxCell>
        <mxCell id="R8ARwrsdHcyFGw3j1qnH-134" value="" style="sketch=0;outlineConnect=0;fontColor=#232F3E;gradientColor=none;fillColor=#FF9900;strokeColor=none;dashed=0;verticalLabelPosition=bottom;verticalAlign=top;align=center;html=1;fontSize=12;fontStyle=0;aspect=fixed;pointerEvents=1;shape=mxgraph.aws4.container_registry_image;" vertex="1" parent="1">
          <mxGeometry x="449" y="690" width="280" height="280" as="geometry" />
        </mxCell>
        <mxCell id="R8ARwrsdHcyFGw3j1qnH-135" value="Prix" style="text;html=1;strokeColor=none;fillColor=none;align=center;verticalAlign=middle;whiteSpace=wrap;rounded=0;fontSize=25;" vertex="1" parent="1">
          <mxGeometry x="350" y="940" width="40" height="20" as="geometry" />
        </mxCell>
        <mxCell id="R8ARwrsdHcyFGw3j1qnH-136" value="Prix" style="text;html=1;strokeColor=none;fillColor=none;align=center;verticalAlign=middle;whiteSpace=wrap;rounded=0;fontSize=25;" vertex="1" parent="1">
          <mxGeometry x="740" y="940" width="40" height="20" as="geometry" />
        </mxCell>
        <mxCell id="R8ARwrsdHcyFGw3j1qnH-137" value="Prix" style="text;html=1;strokeColor=none;fillColor=none;align=center;verticalAlign=middle;whiteSpace=wrap;rounded=0;fontSize=25;" vertex="1" parent="1">
          <mxGeometry x="350" y="600" width="40" height="20" as="geometry" />
        </mxCell>
        <mxCell id="R8ARwrsdHcyFGw3j1qnH-138" value="Prix" style="text;html=1;strokeColor=none;fillColor=none;align=center;verticalAlign=middle;whiteSpace=wrap;rounded=0;fontSize=25;" vertex="1" parent="1">
          <mxGeometry x="740" y="600" width="40" height="20" as="geometry" />
        </mxCell>
        <mxCell id="R8ARwrsdHcyFGw3j1qnH-139" value="Title" style="text;strokeColor=none;fillColor=none;html=1;fontSize=24;fontStyle=1;verticalAlign=middle;align=center;" vertex="1" parent="1">
          <mxGeometry x="164" y="640" width="100" height="40" as="geometry" />
        </mxCell>
        <mxCell id="R8ARwrsdHcyFGw3j1qnH-140" value="Title" style="text;strokeColor=none;fillColor=none;html=1;fontSize=24;fontStyle=1;verticalAlign=middle;align=center;" vertex="1" parent="1">
          <mxGeometry x="150" y="300" width="100" height="40" as="geometry" />
        </mxCell>
        <mxCell id="R8ARwrsdHcyFGw3j1qnH-141" value="Title" style="text;strokeColor=none;fillColor=none;html=1;fontSize=24;fontStyle=1;verticalAlign=middle;align=center;" vertex="1" parent="1">
          <mxGeometry x="539" y="300" width="100" height="40" as="geometry" />
        </mxCell>
        <mxCell id="R8ARwrsdHcyFGw3j1qnH-142" value="Title" style="text;strokeColor=none;fillColor=none;html=1;fontSize=24;fontStyle=1;verticalAlign=middle;align=center;" vertex="1" parent="1">
          <mxGeometry x="540" y="640" width="100" height="40" as="geometry" />
        </mxCell>
        <mxCell id="R8ARwrsdHcyFGw3j1qnH-143" value="description image" style="text;html=1;strokeColor=none;fillColor=none;align=center;verticalAlign=middle;whiteSpace=wrap;rounded=0;fontSize=19;horizontal=0;fontStyle=1" vertex="1" parent="1">
          <mxGeometry x="350" y="330" width="40" height="250" as="geometry" />
        </mxCell>
        <mxCell id="R8ARwrsdHcyFGw3j1qnH-147" value="facebook&lt;br&gt;" style="icon;html=1;image=img/clipart/Gear_128x128.png;fontSize=19;align=center;verticalAlign=middle;" vertex="1" parent="1">
          <mxGeometry x="384" y="1065" width="60" height="60" as="geometry" />
        </mxCell>
        <mxCell id="R8ARwrsdHcyFGw3j1qnH-148" value="Twitter" style="icon;html=1;image=img/clipart/Gear_128x128.png;fontSize=19;align=center;verticalAlign=middle;" vertex="1" parent="1">
          <mxGeometry x="479" y="1065" width="60" height="60" as="geometry" />
        </mxCell>
        <mxCell id="R8ARwrsdHcyFGw3j1qnH-149" value="instagram" style="icon;html=1;image=img/clipart/Gear_128x128.png;fontSize=19;align=center;verticalAlign=middle;" vertex="1" parent="1">
          <mxGeometry x="570" y="1065" width="60" height="60" as="geometry" />
        </mxCell>
        <mxCell id="R8ARwrsdHcyFGw3j1qnH-150" value="You Tube" style="icon;html=1;image=img/clipart/Gear_128x128.png;fontSize=19;align=center;verticalAlign=middle;" vertex="1" parent="1">
          <mxGeometry x="660" y="1065" width="60" height="60" as="geometry" />
        </mxCell>
        <mxCell id="R8ARwrsdHcyFGw3j1qnH-153" value="" style="swimlane;startSize=0;fontSize=19;align=center;verticalAlign=middle;" vertex="1" parent="1">
          <mxGeometry x="30" y="1050" width="240" height="90" as="geometry" />
        </mxCell>
        <mxCell id="R8ARwrsdHcyFGw3j1qnH-154" value="" style="swimlane;startSize=0;fontSize=19;align=center;verticalAlign=middle;" vertex="1" parent="1">
          <mxGeometry x="370" y="1050" width="370" height="90" as="geometry" />
        </mxCell>
        <mxCell id="R8ARwrsdHcyFGw3j1qnH-157" value="" style="swimlane;startSize=0;fontSize=19;align=center;verticalAlign=middle;" vertex="1" parent="1">
          <mxGeometry x="761.5" y="1042.5" width="40" height="40" as="geometry" />
        </mxCell>
      </root>
    </mxGraphModel>
  </diagram>
</mxfile>
